<?xml version="1.0" encoding="UTF-8"?>
<svg id="Layer_2" data-name="Layer 2" xmlns="http://www.w3.org/2000/svg" xmlns:xlink="http://www.w3.org/1999/xlink" viewBox="0 0 320 320">
  <defs>
    <style>
      .cls-1 {
        fill: none;
      }

      .cls-2 {
        fill: #ee2c24;
      }

      .cls-3 {
        fill: #702522;
      }

      .cls-4 {
        fill: #b12a24;
      }

      .cls-5 {
        fill: #f68a1f;
      }

      .cls-6 {
        fill: url(#linear-gradient);
      }

      .cls-7 {
        clip-path: url(#clippath);
      }
    </style>
    <linearGradient id="linear-gradient" x1="-779.26" y1="-43.61" x2="-779.26" y2="20.39" gradientTransform="translate(4056.31 218.37) scale(5)" gradientUnits="userSpaceOnUse">
      <stop offset="0" stop-color="#363636"/>
      <stop offset=".21" stop-color="#313131"/>
      <stop offset="1" stop-color="#222"/>
    </linearGradient>
    <clipPath id="clippath">
      <path class="cls-1" d="M187.32,247.98c-9.73,3.26-20.15,5.02-30.97,5.02-53.89,0-97.58-43.69-97.58-97.58s43.69-97.58,97.58-97.58,95.94,43.69,95.94,97.58v93.35h-54.96s.93-92.3.93-93.35c0-25.74-18.77-41.91-41.91-41.91s-41.91,18.77-41.91,41.91,18.77,41.91,41.91,41.91c10.84,0,20.23-.42,30.33-4.46l.64,55.1Z"/>
    </clipPath>
  </defs>
  <g id="Layer_1-2" data-name="Layer 1">
    <g>
      <path class="cls-6" d="M320,320H0V0h320v320Z"/>
      <g>
        <g class="cls-7">
          <rect class="cls-5" x="46.13" y="46.42" width="223.27" height="79.92"/>
          <rect class="cls-2" x="46.13" y="126.33" width="223.27" height="65.61"/>
          <rect class="cls-4" x="46.13" y="191.95" width="223.27" height="66.23"/>
        </g>
        <path class="cls-3" d="M156.35,57.85c.51,0,1.02,0,1.53.01,52.65.8,94.42,44.85,94.42,97.5v90.28c0,1.73-1.4,3.13-3.13,3.13h-48.67c-1.74,0-3.15-1.42-3.13-3.16.16-16.2.9-89.26.9-90.2,0-25.68-18.68-41.84-41.75-41.91-.05,0-.1,0-.14,0-19.77,0-36.79,13.29-40.94,32.63-5.83,27.2,14.74,51.2,40.92,51.2,10.51,0,19.65-.39,29.4-4.1.08-.03.17-.05.25-.05.36,0,.68.28.69.67l.6,51.79c.02,1.38-.87,2.63-2.18,3.03-9.09,2.8-18.75,4.31-28.76,4.31-1.25,0-2.51-.02-3.77-.07-50.26-1.89-91.31-42.52-93.69-92.76-2.66-56.05,42-102.32,97.46-102.32M156.35,49.5c-14.74,0-29.01,2.97-42.41,8.83-12.94,5.66-24.46,13.73-34.25,23.99-20.18,21.16-30.53,48.94-29.14,78.23,1.25,26.39,12.39,51.26,31.36,70.04,18.97,18.78,43.95,29.66,70.36,30.66,1.36.05,2.73.08,4.08.08,10.64,0,21.14-1.57,31.22-4.68,1.85-.57,3.48-1.6,4.78-2.93,2.17,2.18,5.06,3.39,8.14,3.39h48.67c6.33,0,11.47-5.15,11.47-11.47v-90.28c0-27.74-10.58-54.01-29.8-73.98-19.36-20.13-45.23-31.44-72.84-31.86-.55,0-1.1-.01-1.65-.01h0ZM156.35,188.99c-10.19,0-19.71-4.55-26.13-12.49-6.51-8.05-8.86-18.22-6.63-28.62,3.29-15.33,16.77-26.04,32.78-26.04h.12c19.68.06,33.43,13.87,33.43,33.57,0,.59-.12,12.91-.3,30.19-1.11-.49-2.33-.76-3.62-.76-1.1,0-2.18.2-3.22.59-8.65,3.28-17.09,3.55-26.44,3.55h0Z"/>
      </g>
    </g>
  </g>
</svg>