<?xml version="1.0" encoding="UTF-8"?>
<svg id="Layer_2" data-name="Layer 2" xmlns="http://www.w3.org/2000/svg" xmlns:xlink="http://www.w3.org/1999/xlink" viewBox="0 0 320 320">
  <defs>
    <style>
      .cls-1 {
        fill: url(#linear-gradient);
      }

      .cls-2 {
        fill: #45b29d;
      }
    </style>
    <linearGradient id="linear-gradient" x1="-1488.97" y1="-40.69" x2="-1488.97" y2="23.31" gradientTransform="translate(7604.87 203.77) scale(5)" gradientUnits="userSpaceOnUse">
      <stop offset="0" stop-color="#fff"/>
      <stop offset=".4" stop-color="#f2f2f2"/>
      <stop offset="1" stop-color="#e3e3e3"/>
    </linearGradient>
  </defs>
  <g id="Layer_1-2" data-name="Layer 1">
    <g>
      <path class="cls-1" d="M320,320H0V0h320v320Z"/>
      <path class="cls-2" d="M185.07,47.28c17.96-1.16,34.47,5.78,40.42,23.79,12.53,37.95-26.58,74.5-60.13,83.57-15.09,4.08-32.28,5.45-29.98-15.75.12-1.09,1.02-4.2,1.68-4.96,1.92-2.2,3.51.15,5.3.83,23.98,9.07,69.37-28.65,60.7-54.54-5.5-16.44-28.31-11.29-39.67-4.36-42.53,25.94-60.8,111.86-35.8,153.8,16.12,27.04,50.88,25.39,72.75,6.45,2.09-1.81,4.66-5.64,6.39-6.88,7.52-5.36,17.65,9.52,14.18,17.02-1.45,3.13-8.86,8.74-11.89,10.87-28.93,20.36-69.95,23.26-94.76-5.12-49.51-56.66-11.75-199.38,70.8-204.71Z"/>
    </g>
  </g>
</svg>