<?xml version="1.0" encoding="UTF-8"?>
<svg id="Layer_2" data-name="Layer 2" xmlns="http://www.w3.org/2000/svg" viewBox="0 0 50 50">
  <defs>
    <style>
      .cls-1 {
        fill: #fff;
        fill-rule: evenodd;
      }
    </style>
  </defs>
  <g id="Layer_1-2" data-name="Layer 1">
    <path class="cls-1" d="M42,50H8c-4.42,0-8-3.58-8-8V8C0,3.58,3.58,0,8,0h34c4.42,0,8,3.58,8,8v34c0,4.42-3.58,8-8,8ZM29.72,25c0-2.6-2.11-4.72-4.72-4.72s-4.72,2.11-4.72,4.72,2.11,4.72,4.72,4.72,4.72-2.11,4.72-4.72ZM42.43,25c0-2.6-2.11-4.72-4.72-4.72s-4.72,2.11-4.72,4.72,2.11,4.72,4.72,4.72,4.72-2.11,4.72-4.72ZM17,25c0-2.6-2.11-4.72-4.72-4.72s-4.72,2.11-4.72,4.72,2.11,4.72,4.72,4.72,4.72-2.11,4.72-4.72Z"/>
  </g>
</svg>