<?xml version="1.0" encoding="UTF-8"?>
<svg id="Layer_2" data-name="Layer 2" xmlns="http://www.w3.org/2000/svg" viewBox="0 0 50 50">
  <defs>
    <style>
      .cls-1 {
        fill: #fff;
        fill-rule: evenodd;
      }
    </style>
  </defs>
  <g id="Layer_1-2" data-name="Layer 1">
    <path class="cls-1" d="M42,50H8c-4.42,0-8-3.58-8-8V8C0,3.58,3.58,0,8,0h34c4.42,0,8,3.58,8,8v34c0,4.42-3.58,8-8,8ZM25,9.08c-3.58,0-6.48,2.9-6.48,6.48s2.9,6.48,6.48,6.48,6.48-2.9,6.48-6.48-2.9-6.48-6.48-6.48ZM25,27.95c-3.58,0-6.48,2.9-6.48,6.48s2.9,6.48,6.48,6.48,6.48-2.9,6.48-6.48-2.9-6.48-6.48-6.48Z"/>
  </g>
</svg>