<?xml version="1.0" encoding="UTF-8"?>
<svg id="Layer_2" data-name="Layer 2" xmlns="http://www.w3.org/2000/svg" viewBox="0 0 50 50">
  <defs>
    <style>
      .cls-1 {
        fill: #fff;
      }
    </style>
  </defs>
  <g id="Layer_1-2" data-name="Layer 1">
    <g>
      <path class="cls-1" d="M25,5c11.03,0,20,8.97,20,20s-8.97,20-20,20S5,36.03,5,25,13.97,5,25,5M25,0C11.19,0,0,11.19,0,25s11.19,25,25,25,25-11.19,25-25S38.81,0,25,0h0Z"/>
      <path class="cls-1" d="M25,5.12c1.64,1.29,5,8.14,5,19.88s-3.36,18.59-5,19.88c-1.64-1.29-5-8.14-5-19.88s3.36-18.59,5-19.88M25,0c-5.52,0-10,11.19-10,25s4.48,25,10,25,10-11.19,10-25S30.52,0,25,0h0Z"/>
      <path class="cls-1" d="M25,20c11.74,0,18.59,3.36,19.88,5-1.29,1.64-8.14,5-19.88,5s-18.59-3.36-19.88-5c1.29-1.64,8.14-5,19.88-5M25,15C11.19,15,0,19.48,0,25s11.19,10,25,10,25-4.48,25-10-11.19-10-25-10h0Z"/>
    </g>
  </g>
</svg>