<?xml version="1.0" encoding="UTF-8"?>
<svg id="Layer_2" xmlns="http://www.w3.org/2000/svg" version="1.1" xmlns:xlink="http://www.w3.org/1999/xlink" viewBox="0 0 320 320">
  <!-- Generator: Adobe Illustrator 29.6.1, SVG Export Plug-In . SVG Version: 2.1.1 Build 9)  -->
  <defs>
    <style>
      .st0 {
        fill: url(#radial-gradient);
      }

      .st1 {
        isolation: isolate;
      }

      .st2 {
        fill: #00552d;
      }
    </style>
    <radialGradient id="radial-gradient" cx="-1703.4" cy="1264.2" fx="-1655.8" fy="1264.2" r="47.7" gradientTransform="translate(-8357.1 6481.2) rotate(-180) scale(5)" gradientUnits="userSpaceOnUse">
      <stop offset="0" stop-color="#ceffdc"/>
      <stop offset="0" stop-color="#c2f7d5"/>
      <stop offset=".3" stop-color="#a4e2c2"/>
      <stop offset=".5" stop-color="#74c0a4"/>
      <stop offset=".8" stop-color="#31927b"/>
      <stop offset="1" stop-color="#00705d"/>
    </radialGradient>
  </defs>
  <g id="Layer_1-2">
    <g>
      <path class="st0" d="M0,320h320V0H0v320Z"/>
      <g class="st1">
        <g class="st1">
          <path class="st2" d="M129.2,62.8h-10.5v-7.9c5.6,0,12.4-1.6,13.7-7.8h7.8v50.4h-10.9v-34.7Z"/>
          <path class="st2" d="M169.4,70.5c-.1-1.3-.1-2.6-.6-3.6-.4-1-1.2-1.6-3-1.6s-3.6,1-3.6,3.2,1.7,3.1,3.4,3.9c7.1,3.2,14.7,5.1,14.7,14.2s-6.5,12.2-14.5,12.2-14.7-3.7-14.3-13h10.4c0,1.3,0,2.7.7,3.9.5,1.1,1.6,1.9,3.2,1.9,2.3,0,3.9-1.2,3.9-3.6s-.5-2.3-1.4-3c-4.4-2.3-10.5-4-13.9-7.9-1.9-2.1-2.7-4.4-2.7-7.2,0-8.3,6.6-11.9,14.2-11.9s14.3,4,13.9,12.5h-10.2Z"/>
          <path class="st2" d="M181.8,67v-7.9h4.3v-11h10.9v11h5.2v7.9h-5.2v20.2c0,2.2,1,2.7,2.4,2.7,1.2-.2,1.6-.1,2.8-.1v7.7c-2.3.3-4.6.6-7,.6-5.9,0-9.1-3-9.1-8.9v-22.2h-4.3Z"/>
        </g>
        <g class="st1">
          <path class="st2" d="M103.4,179.9l11.3-51.5h14.6l11.2,51.5h-12.2l-1.7-10h-9.5l-1.4,10h-12.1ZM121.9,137.8h-.1l-3.5,23.1h7l-3.4-23.1Z"/>
          <path class="st2" d="M144.6,179.9v-51.5h14.3c4.7,0,11.4.4,14.8,4.3,2.8,3.2,3.4,7,3.4,11.2s-1.3,11.8-6.8,14.3c-4.2,2.1-9.1,1.4-13.6,1.6v20h-12.1ZM156.6,150.6c2.3,0,4.9.2,6.8-1.3,1.2-1.4,1.5-3.4,1.5-5.2s-.2-5-2.3-6c-1.2-.4-2.8-.4-4.7-.4h-1.3v12.9Z"/>
          <path class="st2" d="M182.7,179.9v-51.5h14.3c4.7,0,11.4.4,14.8,4.3,2.8,3.2,3.4,7,3.4,11.2s-1.3,11.8-6.8,14.3c-4.2,2.1-9.1,1.4-13.6,1.6v20h-12.1ZM194.8,150.6c2.3,0,4.9.2,6.8-1.3,1.2-1.4,1.5-3.4,1.5-5.2s-.2-5-2.3-6c-1.2-.4-2.8-.4-4.7-.4h-1.3v12.9Z"/>
        </g>
        <g class="st1">
          <path class="st2" d="M96.7,262.3v-51.5h12.1v51.5h-12.1Z"/>
          <path class="st2" d="M135.6,228.8v-3.3c0-4.4-1.6-6.7-3.8-6.7-3.8,0-4.7,2-4.7,5.4v25.5c0,2.9,1.1,4.6,4.3,4.6s4.5-4.3,4.5-7.4v-4.7h12.1v6.3c0,8.9-5.1,15-17.4,15s-15.4-5.9-15.4-16.4v-21.1c0-11.2,5.1-16.4,16.2-16.4s16.5,4.4,16.5,14.9v4.3h-12.1Z"/>
          <path class="st2" d="M185.9,245.9c0,11.6-4,17.6-16.3,17.6s-16.5-6-16.5-17.6v-20.9c0-9.9,5.9-15.4,16.5-15.4s16.3,5.5,16.3,15.4v20.9ZM173.9,225.8c0-3.2-.3-6.9-4.3-6.9s-4.3,3.8-4.3,6.9v21.1c0,3,.5,7.3,4.4,7.3s4.2-4.4,4.2-7.3v-21.1Z"/>
          <path class="st2" d="M202.1,233.5h-.1c0,.1,1.1,28.8,1.1,28.8h-11.5v-51.5h12.4l9.3,28.8h.2l-1.2-28.8h11.5v51.5h-12.4l-9.4-28.8Z"/>
        </g>
      </g>
    </g>
  </g>
</svg>