<?xml version="1.0" encoding="UTF-8"?>
<svg id="Layer_2" data-name="Layer 2" xmlns="http://www.w3.org/2000/svg" xmlns:xlink="http://www.w3.org/1999/xlink" viewBox="0 0 320 320">
  <defs>
    <style>
      .cls-1 {
        fill: #fff;
      }

      .cls-2 {
        fill: url(#linear-gradient);
      }
    </style>
    <linearGradient id="linear-gradient" x1="-1506.71" y1="309.82" x2="-1506.71" y2="373.82" gradientTransform="translate(7693.54 -1548.78) scale(5)" gradientUnits="userSpaceOnUse">
      <stop offset="0" stop-color="#ffccab"/>
      <stop offset="1" stop-color="#ffa76d"/>
    </linearGradient>
  </defs>
  <g id="Layer_1-2" data-name="Layer 1">
    <g>
      <path class="cls-2" d="M320,320H0V0h320v320Z"/>
      <g>
        <path class="cls-1" d="M183.45,46.77c.71-12.99-16.23-18.72-27.35-16.3-21.41,4.65-41.34,45.43-48.6,64.4-9.56,24.98-14.29,51.06-16.48,77.69-4.15,1.56-7.96,3.79-12.09,5.44-8.95,3.56-35.36,8.55-40.33,12.92-4.39,3.86-3.88,9.04,2.56,9.19,8.78.2,39.83-12.73,44.25-3.98,2.6,5.15-3.98,31.7-3.23,39.41-.54,1.58-3.92.34-5.59,3.78-2.03,4.17-6.09,25.21-6.22,30.21-.1,3.95.69,9.76,2.41,13.28,2.31,4.72,7.75,10.73,11.82,4.76,3.67-5.37,8.72-30.12,10.2-37.85,3.25-16.96,3.74-36.07,7.14-52.61,1.62-7.87,12.85-11.36,20.19-12.29,7-.88,38.55,1.59,40.37-3.78.45-1.33.61-5.67-.06-6.76-3.86-6.33-46.77.57-55.45-5.58.06-22.81,4.37-46.68,11.15-68.4,5.31-17.03,23.07-59.62,42.94-62.37,10.02-1.39,13.46,8.87,22.38,8.83Z"/>
        <path class="cls-1" d="M283.36,267.7c-.48-.72-12.57-2.6-14.78-2.75-27.99-1.96-66.55-.43-94.93,1.3-3.92.24-21.03,1.02-20.01,7.04.62,3.65,10.2,5.76,13.51,6.05,19.38,1.71,46.27-1.97,66.24-2.7,10.68-.39,22.03.8,32.58.11,4.4-.29,22.51-1.37,17.37-9.04Z"/>
      </g>
    </g>
  </g>
</svg>