<?xml version="1.0" encoding="UTF-8"?>
<svg id="Layer_2" xmlns="http://www.w3.org/2000/svg" version="1.1" xmlns:xlink="http://www.w3.org/1999/xlink" viewBox="0 0 320 320">
  <!-- Generator: Adobe Illustrator 29.6.1, SVG Export Plug-In . SVG Version: 2.1.1 Build 9)  -->
  <defs>
    <style>
      .st0 {
        fill: url(#radial-gradient);
      }

      .st1 {
        isolation: isolate;
      }
    </style>
    <radialGradient id="radial-gradient" cx="-1789" cy="957.9" fx="-1789" fy="957.9" r="46.8" gradientTransform="translate(9105.1 4949.5) scale(5 -5)" gradientUnits="userSpaceOnUse">
      <stop offset=".4" stop-color="#fff"/>
      <stop offset=".5" stop-color="#e6e6e6"/>
      <stop offset=".7" stop-color="silver"/>
      <stop offset=".9" stop-color="#a9a9a9"/>
      <stop offset="1" stop-color="#a1a1a1"/>
    </radialGradient>
  </defs>
  <g id="Layer_1-2">
    <g>
      <path class="st0" d="M320,320H0V0h320v320Z"/>
      <g>
        <path d="M262.2,131.3c0,22.3-6.5,42.3-19.5,60.1s-29.8,30.1-50.4,36.9c-2.4.4-4.1.1-5.3-.9s-1.7-2.4-1.7-4v-28.1c0-8.6-2.3-14.9-6.9-18.9,5.1-.5,9.6-1.3,13.6-2.4s8.2-2.8,12.5-5.2c4.3-2.4,7.9-5.3,10.8-8.9s5.2-8.2,7.1-14,2.7-12.5,2.7-20c0-10.7-3.5-19.9-10.5-27.4,3.3-8.1,2.9-17.1-1.1-27.1-2.5-.8-6.1-.3-10.8,1.5s-8.8,3.7-12.2,5.8l-5.1,3.2c-8.2-2.3-16.8-3.5-25.5-3.5s-17.3,1.2-25.5,3.5c-1.4-1-3.3-2.2-5.6-3.6-2.3-1.4-6.1-3.1-11.1-5.1s-8.9-2.6-11.4-1.8c-3.9,10-4.2,19.1-.9,27.1-7,7.5-10.5,16.7-10.5,27.4s.9,14.2,2.7,20,4.2,10.4,7,14c2.8,3.6,6.4,6.5,10.7,8.9s8.5,4.1,12.5,5.2c4,1.1,8.6,1.9,13.6,2.4-3.6,3.2-5.7,7.8-6.5,13.7-1.9.9-3.9,1.6-6,2s-4.7.7-7.6.7-5.8-.9-8.7-2.9-5.3-4.7-7.4-8.3c-1.7-2.8-3.8-5.1-6.4-6.9-2.6-1.8-4.8-2.8-6.6-3.2l-2.7-.4c-1.9,0-3.2.2-3.9.6s-.9.9-.7,1.5.7,1.2,1.2,1.9,1.1,1.1,1.7,1.6l.9.7c1.9.9,3.9,2.6,5.8,5.1,1.9,2.5,3.3,4.8,4.2,6.8l1.3,3.1c1.2,3.4,3.1,6.1,5.8,8.2,2.8,2.1,5.7,3.4,8.9,4s6.3.9,9.2.9,5.4-.1,7.4-.5l3.1-.5c0,3.4,0,7.3,0,11.8,0,4.5,0,6.9,0,7.2,0,1.6-.6,2.9-1.7,4-1.1,1.1-2.9,1.4-5.3.9-20.6-6.8-37.4-19.1-50.4-36.9-13-17.8-19.5-37.8-19.5-60.1s4.6-35.6,13.7-51.3c9.1-15.7,21.5-28,37.2-37.2,15.7-9.1,32.8-13.7,51.3-13.7s35.6,4.6,51.3,13.7c15.6,9.1,28.1,21.5,37.2,37.2,9.1,15.7,13.7,32.8,13.7,51.3h0Z"/>
        <g class="st1">
          <g class="st1">
            <path d="M117.1,285.7v6.5l-24.3-13.1v-5.8l24.3-13.2v6.5l-17.3,9.7,17.3,9.4Z"/>
            <path d="M120,290.8l9.6-43.7h12.3l9.5,43.7h-10.4l-1.5-8.5h-8l-1.2,8.5h-10.3ZM135.8,255.1h-.1l-3,19.6h5.9l-2.9-19.6Z"/>
            <path d="M155,290.8v-43.7h12.2c4,0,9.7.3,12.5,3.6,2.4,2.7,2.9,5.9,2.9,9.5s-1.1,10-5.8,12.2c-3.6,1.7-7.7,1.2-11.5,1.4v17h-10.2ZM165.2,266c1.9,0,4.1.2,5.8-1.1,1-1.2,1.3-2.9,1.3-4.4s-.2-4.3-1.9-5.1c-1-.3-2.4-.3-4-.3h-1.1v10.9Z"/>
            <path d="M187.3,290.8v-43.7h10.3v43.7h-10.3Z"/>
            <path d="M220.2,276.3l-17.3-9.7v-6.5l24.3,13.2v5.8l-24.3,13.1v-6.5l17.3-9.4Z"/>
          </g>
        </g>
      </g>
    </g>
  </g>
</svg>