<?xml version="1.0" encoding="UTF-8"?>
<svg id="Layer_2" xmlns="http://www.w3.org/2000/svg" version="1.1" xmlns:xlink="http://www.w3.org/1999/xlink" viewBox="0 0 320 320">
  <!-- Generator: Adobe Illustrator 29.6.1, SVG Export Plug-In . SVG Version: 2.1.1 Build 9)  -->
  <defs>
    <style>
      .st0 {
        fill: #ffc107;
      }

      .st1 {
        fill: #f44336;
      }

      .st2 {
        fill: #2196f3;
      }

      .st3 {
        fill: url(#radial-gradient);
      }

      .st4 {
        isolation: isolate;
      }

      .st5 {
        fill: #00b060;
      }

      .st6 {
        fill: #e6e6e6;
      }
    </style>
    <radialGradient id="radial-gradient" cx="-2128.2" cy="957.9" fx="-2128.2" fy="957.9" r="46.8" gradientTransform="translate(10800.9 4949.5) scale(5 -5)" gradientUnits="userSpaceOnUse">
      <stop offset=".4" stop-color="#fff"/>
      <stop offset=".5" stop-color="#e6e6e6"/>
      <stop offset=".7" stop-color="silver"/>
      <stop offset=".9" stop-color="#a9a9a9"/>
      <stop offset="1" stop-color="#a1a1a1"/>
    </radialGradient>
  </defs>
  <g id="Layer_1-2">
    <g>
      <path class="st3" d="M320,320H0V0h320v320Z"/>
      <g>
        <g class="st4">
          <g class="st4">
            <path d="M117.1,285.7v6.5l-24.3-13.1v-5.8l24.3-13.2v6.5l-17.3,9.7,17.3,9.4Z"/>
            <path d="M120,290.8l9.6-43.7h12.3l9.5,43.7h-10.4l-1.5-8.5h-8l-1.2,8.5h-10.3ZM135.8,255.1h-.1l-3,19.6h5.9l-2.9-19.6Z"/>
            <path d="M155,290.8v-43.7h12.2c4,0,9.7.3,12.5,3.6,2.4,2.7,2.9,5.9,2.9,9.5s-1.1,10-5.8,12.2c-3.6,1.7-7.7,1.2-11.5,1.4v17h-10.2ZM165.2,266c1.9,0,4.1.2,5.8-1.1,1-1.2,1.3-2.9,1.3-4.4s-.2-4.3-1.9-5.1c-1-.3-2.4-.3-4-.3h-1.1v10.9Z"/>
            <path d="M187.3,290.8v-43.7h10.3v43.7h-10.3Z"/>
            <path d="M220.2,276.3l-17.3-9.7v-6.5l24.3,13.2v5.8l-24.3,13.1v-6.5l17.3-9.4Z"/>
          </g>
        </g>
        <g>
          <path class="st1" d="M160,70.3c13.5,0,25.9,4.6,35.7,12.3l30.3-28.9c-17.6-15.5-40.7-25-66.1-25-38.4,0-71.7,21.7-88.5,53.4l33.7,26.6c8.2-22.4,29.6-38.4,54.8-38.4h0Z"/>
          <path class="st2" d="M259.2,141.2c.5-4.1.9-8.3.9-12.5,0-7.2-.8-14.1-2.2-20.8h-97.8v41.7h54.1c-4.4,11.4-12.2,21-22.1,27.7l33.8,26.7c17.9-15.8,30.2-37.8,33.3-62.7h0Z"/>
          <path class="st0" d="M101.6,128.7c0-7,1.3-13.7,3.6-20l-33.7-26.6c-7.3,13.9-11.5,29.8-11.5,46.6s4.1,32.3,11.3,46.1l33.8-26.6c-2.2-6.1-3.4-12.6-3.4-19.5h0Z"/>
          <path class="st5" d="M160,187.1c-25.4,0-46.9-16.2-55-38.9l-33.8,26.6c16.7,32,50.1,53.9,88.7,53.9s48.3-9.4,65.8-24.8l-33.8-26.7c-9.1,6.2-20.1,9.8-32,9.8h0Z"/>
          <path class="st6" d="M260,129.9c0-.4,0-.8,0-1.2s0-.2,0-.4c0,.5,0,1,0,1.6h0Z"/>
        </g>
      </g>
    </g>
  </g>
</svg>