<?xml version="1.0" encoding="UTF-8"?>
<svg id="Layer_2" data-name="Layer 2" xmlns="http://www.w3.org/2000/svg" viewBox="0 0 50 50">
  <defs>
    <style>
      .cls-1 {
        fill: #fff;
        fill-rule: evenodd;
      }
    </style>
  </defs>
  <g id="Layer_1-2" data-name="Layer 1">
    <g>
      <path class="cls-1" d="M12.5,0c2.3,0,4.17,1.87,4.17,4.17s-1.87,4.17-4.17,4.17h-4.17v33.33h33.33v-4.17c0-2.3,1.87-4.17,4.17-4.17s4.17,1.87,4.17,4.17v4.17c0,4.6-3.73,8.33-8.33,8.33H8.33c-4.6,0-8.33-3.73-8.33-8.33V8.33C0,3.73,3.73,0,8.33,0h4.17Z"/>
      <path class="cls-1" d="M50,3.64v17.01c0,2.18-1.59,4.12-3.76,4.33-2.49.24-4.58-1.71-4.58-4.15v-6.6l-17.72,17.72c-1.54,1.54-4.04,1.79-5.72.4-1.92-1.59-2.03-4.45-.3-6.17l17.85-17.85h-6.44c-2.18,0-4.12-1.59-4.33-3.76-.24-2.49,1.71-4.58,4.15-4.58h17.21c2.01,0,3.64,1.63,3.64,3.64Z"/>
    </g>
  </g>
</svg>