<?xml version="1.0" encoding="UTF-8"?>
<svg id="Layer_2" data-name="Layer 2" xmlns="http://www.w3.org/2000/svg" xmlns:xlink="http://www.w3.org/1999/xlink" viewBox="0 0 320 320">
  <defs>
    <style>
      .cls-1 {
        fill: url(#linear-gradient-2);
      }

      .cls-2 {
        fill: #fff;
      }

      .cls-3 {
        fill: none;
      }

      .cls-4 {
        fill: url(#linear-gradient);
      }

      .cls-5 {
        clip-path: url(#clippath);
      }
    </style>
    <linearGradient id="linear-gradient" x1="320.99" y1="160" x2="1.35" y2="160" gradientUnits="userSpaceOnUse">
      <stop offset="0" stop-color="#fce497"/>
      <stop offset="1" stop-color="#c9ad56"/>
    </linearGradient>
    <linearGradient id="linear-gradient-2" x1="131.28" y1="160" x2="276.7" y2="160" gradientUnits="userSpaceOnUse">
      <stop offset="0" stop-color="#704223"/>
      <stop offset="1" stop-color="#4a2d17"/>
    </linearGradient>
    <clipPath id="clippath">
      <rect class="cls-3" width="320" height="320" rx="50" ry="50"/>
    </clipPath>
  </defs>
  <g id="Layer_1-2" data-name="Layer 1">
    <g>
      <rect class="cls-4" width="320" height="320"/>
      <path class="cls-1" d="M218.25,90.71c0-26.6-15.51-48.15-34.64-48.15s-34.64,21.56-34.64,48.15c0,21.56,10.2,39.81,24.25,45.95v128.66c0,6.7,5.43,12.13,12.13,12.13h0c6.7,0,12.13-5.43,12.13-12.13v-130.47c12.23-7.43,20.79-24.39,20.79-44.14Z"/>
      <g class="cls-5">
        <g>
          <path class="cls-2" d="M67.23,54.11c0-13.86-11.24-25.1-25.1-25.1H.72C.25,31.33,0,33.72,0,36.18v43.03h42.13c13.86,0,25.1-11.24,25.1-25.1Z"/>
          <path class="cls-2" d="M67.23,124.7h0c0-13.86-11.24-25.1-25.1-25.1H0v50.2h42.13c13.86,0,25.1-11.24,25.1-25.1Z"/>
          <path class="cls-2" d="M67.23,195.3c0-13.86-11.24-25.1-25.1-25.1H0v50.2h42.13c13.86,0,25.1-11.24,25.1-25.1Z"/>
          <path class="cls-2" d="M67.23,265.89c0-13.86-11.24-25.1-25.1-25.1H0v43.03C0,286.28.25,288.67.72,290.99h41.41c13.86,0,25.1-11.24,25.1-25.1Z"/>
        </g>
      </g>
    </g>
  </g>
</svg>