<?xml version="1.0" encoding="UTF-8"?>
<svg id="Layer_2" data-name="Layer 2" xmlns="http://www.w3.org/2000/svg" xmlns:xlink="http://www.w3.org/1999/xlink" viewBox="0 0 320 320">
  <defs>
    <style>
      .cls-1 {
        fill: url(#radial-gradient);
      }

      .cls-2 {
        fill: rgba(226, 32, 27, 1);
      }
    </style>
    <radialGradient id="radial-gradient" cx="-777.82" cy="339.21" fx="-777.82" fy="339.21" r="45.68" gradientTransform="translate(4049.11 -1536.06) scale(5)" gradientUnits="userSpaceOnUse">
      <stop offset=".29" stop-color="#700000"/>
      <stop offset="1" stop-color="#cf0000"/>
    </radialGradient>
  </defs>
  <g id="Layer_1-2" data-name="Layer 1">
    <g>
      <path class="cls-1" d="M320,320H0V0h320v320Z"/>
      <g>
        <path id="path10-0" class="cls-2" d="M114.48,95.82v32.48h24.06V63.33h-24.06v32.48Z"/>
        <path id="path12-7" class="cls-2" d="M190.83,104.48c-15.96,15.96-29.03,29.59-29.03,30.24,0,1.36,15.16,16.84,16.44,16.84,1.6,0,59.11-58.31,58.87-59.59-.4-1.6-15-16.6-16.2-16.6-.56,0-14.04,13.07-30.08,29.11h0Z"/>
        <path id="path20-7" class="cls-2" d="M114.48,145.94c-10.43,1.68-19.65,6.82-28.15,15.72-6.1,6.42-8.9,10.91-11.79,19.01-1.76,5.13-2,7.06-2.09,17,0,10.27.16,11.79,2.17,17.64,5.45,15.56,21.33,30,36.73,33.28,6.98,1.52,23.1.64,29.51-1.6,10.27-3.69,21.81-13.23,27.43-22.86,1.28-2.25,3.29-6.9,4.41-10.43,1.76-5.45,2.09-7.86,2.17-16.04,0-17.48-4.09-27.03-16.84-39.14-6.34-5.93-10.19-8.34-17.48-10.67-7.14-2.25-18.61-3.13-26.07-1.92h0ZM134.29,174.89c5.69,2.73,9.3,6.5,12.11,12.75,4.33,9.3,2.17,20.29-5.53,27.99-5.13,5.13-9.62,6.9-17.16,6.9-5.77,0-6.9-.32-11.55-2.81-3.37-1.76-6.02-4.01-7.78-6.42-8.34-11.23-7.7-23.82,1.6-33.52,7.7-8.18,17.8-9.86,28.31-4.89Z"/>
        <path id="path24-1" class="cls-2" d="M187.47,185.24v12.03h66.57v-24.06h-66.57v12.03Z"/>
      </g>
    </g>
  </g>
</svg>