<?xml version="1.0" encoding="UTF-8"?>
<svg id="Layer_2" data-name="Layer 2" xmlns="http://www.w3.org/2000/svg" xmlns:xlink="http://www.w3.org/1999/xlink" viewBox="0 0 320 320">
  <defs>
    <style>
      .cls-1 {
        fill: url(#linear-gradient-2);
      }

      .cls-2 {
        fill: #727272;
      }

      .cls-3 {
        fill: #fff;
      }

      .cls-4 {
        fill: url(#linear-gradient-3);
      }

      .cls-5 {
        fill: #bfbfbf;
      }

      .cls-6 {
        fill: #d8d8d8;
      }

      .cls-7 {
        fill: #a8a8a8;
      }

      .cls-8 {
        fill: #545454;
      }

      .cls-9 {
        fill: url(#linear-gradient);
      }
    </style>
    <linearGradient id="linear-gradient" x1="-23.48" y1="-362.29" x2="-23.48" y2="-298.29" gradientTransform="translate(277.38 1811.77) scale(5)" gradientUnits="userSpaceOnUse">
      <stop offset="0" stop-color="#4cd4b6"/>
      <stop offset=".25" stop-color="#43bda2"/>
      <stop offset=".74" stop-color="#359681"/>
      <stop offset="1" stop-color="#308774"/>
    </linearGradient>
    <linearGradient id="linear-gradient-2" x1="32.18" y1="153.92" x2="156.89" y2="153.92" gradientUnits="userSpaceOnUse">
      <stop offset="0" stop-color="#000" stop-opacity="0"/>
      <stop offset=".77" stop-color="#000" stop-opacity=".38"/>
      <stop offset=".9" stop-color="#000" stop-opacity=".75"/>
    </linearGradient>
    <linearGradient id="linear-gradient-3" x1="-94.07" y1="153.92" x2="30.64" y2="153.92" gradientTransform="translate(189.07) rotate(-180) scale(1 -1)" xlink:href="#linear-gradient-2"/>
  </defs>
  <g id="Layer_1-2" data-name="Layer 1">
    <g>
      <path class="cls-9" d="M320,320H0V0h320v320Z"/>
      <g>
        <g>
          <path class="cls-8" d="M156.89,236.55c-39.74-24.97-94.45,4.32-115.73,17.76-3.9,2.46-8.98-.33-8.98-4.94V107.21c0-2.91,2.13-5.37,5-5.79,19.55-2.85,91.11-10.66,119.71,22.53v112.6Z"/>
          <path class="cls-8" d="M156.89,237.32c-40.12-25.2-95.49-2.93-116.33,7.17-3.88,1.88-8.38-.96-8.38-5.27V95.69c0-2.91,2.13-5.37,5-5.79,19.55-2.85,91.11-10.66,119.71,22.53v124.89Z"/>
          <path class="cls-7" d="M156.89,236.55c-40.51-25.45-96.56-9.45-116.92-2.22-3.8,1.35-7.79-1.48-7.79-5.52V84.17c0-2.91,2.13-5.37,5-5.79,19.55-2.85,91.11-10.66,119.71,22.53v135.64Z"/>
          <path class="cls-7" d="M156.89,236.55c-40.99-25.75-97.91-16.7-117.64-12.44-3.64.78-7.07-1.99-7.07-5.72V72.65c0-2.91,2.13-5.37,5-5.79,19.55-2.85,91.11-10.66,119.71,22.53v147.16Z"/>
          <path class="cls-3" d="M156.89,236.01c-41.52-26.08-99.39-23.92-118.39-22.36-3.41.28-6.32-2.41-6.32-5.83V61.13c0-2.91,2.13-5.37,5-5.79,19.55-2.85,91.11-10.66,119.71,22.53v158.14Z"/>
        </g>
        <path class="cls-6" d="M46.2,147.35c24.98-.55,62.63-3.5,102.26,17.73,1.81.97,4.17,4.44,4.21,6.49.17,10.64,1.58,24.39,1.58,42.65,0,3.85-3.8,7.07-7.36,5.58-40.82-17.07-76.31-16.97-100.46-16.5-3.22.06-5.85-2.54-5.85-5.76v-44.43c0-3.13,2.5-5.68,5.63-5.75Z"/>
        <path class="cls-6" d="M152.4,117.54c-37.44-23.76-89.61-21.8-106.75-20.38-3.07.25-5.7-2.19-5.7-5.31v-21.67c0-2.65,1.92-4.89,4.51-5.27,17.63-2.6,82.15-9.71,107.94,20.53v32.1Z"/>
        <path class="cls-6" d="M94.54,110.52c0-2.76-2.16-5.04-4.91-5.17-19.39-.9-37.13-1.49-45.16-.31-2.59.38-4.51,2.62-4.51,5.27v24.38c0,3.11,2.63,5.56,5.7,5.31,8.2-.68,24.41-1.48,43.19.47,3.04.32,5.69-2.09,5.69-5.15v-24.8Z"/>
        <path class="cls-6" d="M103.51,112.86v25.69c0,2.46,1.72,4.58,4.13,5.06,15.26,3.09,31.01,8.34,44.76,17.07v-32.1c-10.06-11.8-26.02-17.91-42.79-20.82-3.18-.55-6.1,1.87-6.1,5.1Z"/>
        <path class="cls-1" d="M156.89,237.01c-46.04-28.55-103.6,11.48-117.39,18.03-2.85,1.35-7.32-1.52-7.32-5.66V61.13c0-2.91,2.13-5.37,5-5.79,19.55-2.85,91.11-10.66,119.71,22.53v159.14Z"/>
      </g>
      <g>
        <g>
          <path class="cls-8" d="M158.43,236.55c39.74-24.97,94.45,4.32,115.73,17.76,3.9,2.46,8.98-.33,8.98-4.94V107.21c0-2.91-2.13-5.37-5-5.79-19.55-2.85-91.11-10.66-119.71,22.53v112.6Z"/>
          <path class="cls-8" d="M158.43,237.32c40.12-25.2,95.49-2.93,116.33,7.17,3.88,1.88,8.38-.96,8.38-5.27V95.69c0-2.91-2.13-5.37-5-5.79-19.55-2.85-91.11-10.66-119.71,22.53v124.89Z"/>
          <path class="cls-7" d="M158.43,236.55c40.51-25.45,96.56-9.45,116.92-2.22,3.8,1.35,7.79-1.48,7.79-5.52V84.17c0-2.91-2.13-5.37-5-5.79-19.55-2.85-91.11-10.66-119.71,22.53v135.64Z"/>
          <path class="cls-7" d="M158.43,236.55c40.99-25.75,97.91-16.7,117.64-12.44,3.64.78,7.07-1.99,7.07-5.72V72.65c0-2.91-2.13-5.37-5-5.79-19.55-2.85-91.11-10.66-119.71,22.53v147.16Z"/>
          <path class="cls-3" d="M158.43,236.01c41.52-26.08,99.39-23.92,118.39-22.36,3.41.28,6.32-2.41,6.32-5.83V61.13c0-2.91-2.13-5.37-5-5.79-19.55-2.85-91.11-10.66-119.71,22.53v158.14Z"/>
        </g>
        <path class="cls-6" d="M269.12,147.35c-24.98-.55-62.63-3.5-102.26,17.73-1.81.97-4.17,4.44-4.21,6.49-.17,10.64-1.58,24.39-1.58,42.65,0,3.85,3.8,7.07,7.36,5.58,40.82-17.07,76.31-16.97,100.46-16.5,3.22.06,5.85-2.54,5.85-5.76v-44.43c0-3.13-2.5-5.68-5.63-5.75Z"/>
        <path class="cls-6" d="M162.92,117.54c37.44-23.76,89.61-21.8,106.75-20.38,3.07.25,5.7-2.19,5.7-5.31v-21.67c0-2.65-1.92-4.89-4.51-5.27-17.63-2.6-82.15-9.71-107.94,20.53v32.1Z"/>
        <path class="cls-6" d="M220.78,110.52c0-2.76,2.16-5.04,4.91-5.17,19.39-.9,37.13-1.49,45.16-.31,2.59.38,4.51,2.62,4.51,5.27v24.38c0,3.11-2.63,5.56-5.7,5.31-8.2-.68-24.41-1.48-43.19.47-3.04.32-5.69-2.09-5.69-5.15v-24.8Z"/>
        <path class="cls-6" d="M211.81,112.86v25.69c0,2.46-1.72,4.58-4.13,5.06-15.26,3.09-31.01,8.34-44.76,17.07v-32.1c10.06-11.8,26.02-17.91,42.79-20.82,3.18-.55,6.1,1.87,6.1,5.1Z"/>
        <path class="cls-4" d="M158.43,237.01c46.04-28.55,103.6,11.48,117.39,18.03,2.85,1.35,7.32-1.52,7.32-5.66V61.13c0-2.91-2.13-5.37-5-5.79-19.55-2.85-91.11-10.66-119.71,22.53v159.14Z"/>
      </g>
      <rect class="cls-2" x="140.79" y="58.09" width="35.31" height="184.85" rx="8.43" ry="8.43"/>
      <g>
        <rect class="cls-5" x="146.63" y="69.13" width="23.64" height="9.19" rx="4.32" ry="4.32"/>
        <rect class="cls-5" x="146.63" y="82.55" width="23.64" height="9.19" rx="4.32" ry="4.32"/>
        <rect class="cls-5" x="146.63" y="95.97" width="23.64" height="9.19" rx="4.32" ry="4.32"/>
        <rect class="cls-5" x="146.63" y="109.39" width="23.64" height="9.19" rx="4.32" ry="4.32"/>
        <rect class="cls-5" x="146.63" y="122.82" width="23.64" height="9.19" rx="4.32" ry="4.32"/>
        <rect class="cls-5" x="146.63" y="136.24" width="23.64" height="9.19" rx="4.32" ry="4.32"/>
        <rect class="cls-5" x="146.63" y="149.66" width="23.64" height="9.19" rx="4.32" ry="4.32"/>
        <rect class="cls-5" x="146.63" y="163.08" width="23.64" height="9.19" rx="4.32" ry="4.32"/>
        <rect class="cls-5" x="146.63" y="176.51" width="23.64" height="9.19" rx="4.32" ry="4.32"/>
        <rect class="cls-5" x="146.63" y="189.93" width="23.64" height="9.19" rx="4.32" ry="4.32"/>
        <rect class="cls-5" x="146.63" y="203.35" width="23.64" height="9.19" rx="4.32" ry="4.32"/>
        <rect class="cls-5" x="146.63" y="216.77" width="23.64" height="9.19" rx="4.32" ry="4.32"/>
        <path class="cls-5" d="M162.99,282.05h-9.08c-4.32,0-7.82-3.5-7.82-7.82v-33.27c0-4.32,3.5-7.82,7.82-7.82h9.08c4.32,0,7.82,3.5,7.82,7.82v33.27c0,4.32-3.5,7.82-7.82,7.82ZM166.33,271.95v-6.64c0-1.92-1.56-3.48-3.48-3.48h-8.8c-1.92,0-3.48,1.56-3.48,3.48v6.64c0,1.92,1.56,3.48,3.48,3.48h8.8c1.92,0,3.48-1.56,3.48-3.48Z"/>
      </g>
    </g>
  </g>
</svg>